<?xml version="1.0" encoding="UTF-8"?>
<svg version="1.1" viewBox="0 0 2000 2000" width="500" height="500" xmlns="http://www.w3.org/2000/svg">
<path transform="translate(0)" d="m0 0h2e3v2e3h-2e3z" fill="#AC8565"/>
<path transform="translate(1123,397)" d="m0 0h229l-5 26-37 167-20 89-2 9-2 2-231 1-1 114 277 1-1 11-16 77-17 80-9 42-2 2-231 1-1 114h277l-1 10-11 51-35 157-9 40-1 2h-481l-1-61v-288l1-353-57-1 1-11 8-36 43-193 4-17 2-3h327v-13l1-19z" fill="#FEF6E1"/>
<path transform="translate(85,430)" d="m0 0h285l52 2 35 4 24 5 20 6 16 6 21 10 15 9 14 10 13 11 8 7 21 21 9 11 11 15 10 15 13 23 11 22 11 28 7 21 7 26 7 36 4 32 2 35v28l-2 38-5 38-7 34-8 29-7 20-10 25-10 21-13 23-12 18-12 16-11 12-7 8-14 14-14 11-13 10-20 12-23 11-36 12-26 6-28 4-21 2-35 2h-22v213l-1 1h-101l-2-4v-42l5-23 3-16 8-16 2-6-1-13-6-28-4-12v-11l1-7v-13l3-6 6-10 2-20 7-6 3-2 5 1 5 3v-7l3-16-11-3-10-3h-20l-4 4h-24l-13 1-2-1h-8l-17 6-9 5-1 1v7l8 16 2 7 2-2 3-10 5-1v7l-3 8v22l-2 5-6 5-5 10-9 9-10 8-8 8-10 13-16 22-13 18-8 11-8 12h-2l-1-633-56-1 1-9 17-78 35-157 4-15z" fill="#FEF6E1"/>
<path transform="translate(1755,397)" d="m0 0h223l-1 10-13 60-42 188-8 34-1 1-127 1v69l-1 613-1 1-32 2 1-10 3-18 1-10v-28l-3-18-5-15-7-13-8-10-10-9-14-8-21-9-10-8-11-14-7-6-5-10-4-9 1-13v-25l-3-8-6 1-8 7-8 12-9 2h-17l-9-7-14-11-8-3-1 12 3 21 1 5v7l-4 8-1 4v13l4 12 7 11 9 13 3 6 1 4v13l4 13 17 35 3 9v45l-2 12-3 5-8 8-3 1h-76l-1-347v-355l-134-1-1-3 10-43 20-91 15-66 8-37 5-19 1-1h296l4-17 4-13z" fill="#FEF6E1"/>
<path transform="translate(345,680)" d="m0 0 12 1 18 4 16 6 11 6 9 7 10 10 10 15 6 13 5 17 3 16 2 27-1 21-4 24-7 21-8 16-8 12-13 14-10 7-14 7-13 4-14 2h-10z" fill="#AC8565"/>
<path transform="translate(1017,1467)" d="m0 0h12l10 2 9 5 6 9 4 13 1 6v41l-3 14-5 10-9 8-10 3h-20l-11-4-6-4-5-8-4-15-1-7v-35l3-16 6-12 7-6 8-3z" fill="#FEF6E1"/>
<path transform="translate(443,1468)" d="m0 0h13l5 4 8 19 5 14v2h2l1-6 14-31 2-2h12l3 1 1 2 1 11 1 25v70l-1 1h-17l-2-5-1-60-7 11-5 3-8-1-6-5-4-7-1 63-1 1h-13l-5-1-1-3v-103l1-2z" fill="#FEFBF1"/>
<path transform="translate(278,1467)" d="m0 0h14l4 2 5 18 8 40 7 43v8h-11l-6-2-3-7-4-22v-3h-20l-1 16-3 16-3 3-14-1-3-2v-8l8-49 8-44 3-7z" fill="#FEFBF1"/>
<path transform="translate(1341,1468)" d="m0 0h32l10 4 7 8 3 7 1 5v16l-3 11-6 9-8 5-7 2-9 1h-9v41l-1 1h-12l-4-2-1-2v-104z" fill="#FEFBF1"/>
<path transform="translate(132,1523)" d="m0 0 16 1 10 4 7 6 7 11 4 12v13l-4 11-6 7-4 1h-7l-16-4h-8l-16 4h-8l-5-3-5-10-2-9v-10l4-12 7-11 8-6 10-4z" fill="#FEF6E1"/>
<path transform="translate(1860,1514)" d="m0 0h17l11 3 8 6 7 9 4 8 2 10v8l-2 9-5 8-6 5h-10l-13-5h-9l-14 5-6 1-7-3-5-7-3-8-1-14 3-12 6-10 7-7 7-4z" fill="#FEF6E1"/>
<path transform="translate(1196,1523)" d="m0 0 13 1 10 4 8 7 8 14 2 8v11l-2 9-5 8-4 3-3 1h-8l-15-4h-8l-16 4h-7l-5-3-4-5-3-9v-17l4-12 7-10 9-6 8-3z" fill="#FEF6E1"/>
<path transform="translate(827,1467)" d="m0 0h9l13 2 6 3 1 1-1 10-3 4-14-1h-11l-5 3-2 4-1 8v43l2 11 4 4 16 1 1-33 2-2 9-1 6 2 2 10 2 24v14l-5 3-8 1h-28l-11-4-8-7-4-8-3-12-2-19 1-23 3-16 3-8 8-9 10-4z" fill="#FEFBF1"/>
<path transform="translate(1534,1469)" d="m0 0h16l20 1v15l-3 2h-34l1 4v20h13l20 1v16l-2 1h-30v30h37v15l-5 2h-52l-1-1v-105z" fill="#FEFBF1"/>
<path transform="translate(1707,1469)" d="m0 0h43l5 2v10l-3 5-4 1h-14v90l-1 1h-14l-4-2-1-2-1-86-17-1-4-1-1-2v-12l1-2z" fill="#FEFBF1"/>
<path transform="translate(638,1470)" d="m0 0h31l2 2-1 13-6 3v14l2 56 6 2 1 1v8l-1 5-2 1-18 1h-14l-2-1v-12l3-4 3-1 1-29v-41l-6-3-2-6v-6z" fill="#FEFBF1"/>
<path transform="translate(1019,1483)" d="m0 0h12l3 3 2 9 1 27v17l-2 15-3 5-8 3h-10l-3-2-2-7-1-8v-45l2-9 5-6z" fill="#AC8565"/>
<path transform="translate(493,1468)" d="m0 0h12l3 1 1 2 1 11 1 25v70l-1 1h-17l-1-1v-62l8-1 1-14-1-16-5 2-6 13-4 2-4-4 1-7 9-20z" fill="#FEFBF1"/>
<path transform="translate(265,1471)" d="m0 0h1v14l3 1 7-8 3-2 7 1 4 5 2 5v8l-1 8 2-2 1 9h-6l7 11 3 3 1 2v7l-1 3-10-1-9 2-12 5-3 1-1-2v-11l1-5-1-4h-3l-3 6-7 41h-1l1-14 13-74z" fill="#FEF6E1"/>
<path transform="translate(827,1467)" d="m0 0h9l13 2 6 3 1 1-1 10-3 4-14-1h-11l-5 3-2 4-1 8v50h-1l-2-14-1-4h2v-8h-2l-1 9h-1v5l-2 2-1 6-3-1-3-5-2-11v-16h-2l-1-5h-2l1 5h-1l-1 12-2 2 1-23 3-16 3-8 8-9 10-4z" fill="#FEF6E1"/>
<path transform="translate(219,1336)" d="m0 0h2l1 2 3 30v11l-1 4 3 3 1 6-1 1h-28l-5-3-6-4-1-2-2-22 5-10 4-3 12-4 8-5z" fill="#FEF6E1"/>
<path transform="translate(989,1516)" d="m0 0 2 3 3 15 3 8 2 3 2-11 5-1 1 2v10h2l2 12 1 3 2 1h10l9-1 1-2h2v-2h3l-1-6 4-3h4v-2h-2l1-2 4-1h3l4 2 1 4-3 14-4 6-8 7-10 3h-20l-11-4-6-4-5-8-3-10-1-14v-20h2z" fill="#FEFBF1"/>
<path transform="translate(197,1499)" d="m0 0h7l9 3 6 8 1 3v10l-6 12-8 7-8 3h-11l-8-4-4-6-1-3v-14l3-7 6-7 7-4z" fill="#FEFBF1"/>
<path transform="translate(1929,1489)" d="m0 0h7l9 3 5 5 2 4v14l-5 10-9 8-6 3h-12l-8-5-4-5-1-3v-16l6-10 9-6z" fill="#FEFBF1"/>
<path transform="translate(162,1464)" d="m0 0 9 3 5 4 4 7v17l-3 9-6 7-9 4h-8l-7-3-5-5-3-5-1-5v-8l3-10 6-8 7-5z" fill="#FEFBF1"/>
<path transform="translate(1257,1499)" d="m0 0h8l9 3 5 6 1 2v16l-5 9-9 8-6 2h-12l-8-4-4-7-1-3v-13l4-8 7-7 5-3z" fill="#FEFBF0"/>
<path transform="translate(1218,1465)" d="m0 0h10l8 5 4 5 2 7v9l-4 13-7 8-8 3h-8l-8-4-5-6-2-4v-16l5-10 5-6z" fill="#FEFBF0"/>
<path transform="translate(1891,1455)" d="m0 0 10 1 6 4 5 6 2 12-2 12-6 9-7 5-4 1h-9l-8-4-5-6-2-8v-7l3-10 4-6 8-7z" fill="#FEFBF1"/>
<path transform="translate(107,1465)" d="m0 0h7l8 3 7 8 3 7v16l-5 10-7 5-3 1h-7l-8-3-7-8-4-9-1-4v-8l5-10 7-6z" fill="#FEFBF0"/>
<path transform="translate(1169,1465)" d="m0 0 9 1 6 3 6 7 3 7v17l-4 8-8 6-3 1h-7l-8-4-7-8-4-9-1-10 4-10 8-7z" fill="#FEFBF0"/>
<path transform="translate(1838,1456)" d="m0 0h12l6 4 6 7 3 7v16l-5 9-7 5-3 1h-8l-8-4-7-8-3-7-1-5v-8l5-10 8-6z" fill="#FEFBF0"/>
<path transform="translate(1798,1489)" d="m0 0h11l9 4 8 7 5 10-1 10-3 6-4 5-6 3h-12l-9-4-7-7-4-8v-14l4-6 5-4z" fill="#FEFBF1"/>
<path transform="translate(1125,1499)" d="m0 0h13l10 5 8 9 3 6v9l-4 8-8 7-2 1h-11l-10-5-5-5-5-8-1-3v-12l5-8z" fill="#FEFBF0"/>
<path transform="translate(65,1499)" d="m0 0h12l10 5 8 9 2 4v13l-4 7-7 6-2 1h-12l-10-5-7-8-3-7v-13l5-8z" fill="#FEFBF1"/>
<path transform="translate(132,1523)" d="m0 0 16 1 10 4 7 6 5 10 2 5-1 3-4-4-3-5-3-1v-2l-4-2-6-5h-8l-2-2h-7l-8 2-9 3-7 7-4 8-1 3v13l5 10 3 2h32l10 1 7-3 7-6 2-3v-10l3-3 1 3v11l-3 12-6 7-4 1h-7l-16-4h-8l-16 4h-8l-5-3-5-10-2-9v-10l4-12 7-11 8-6 10-4z" fill="#FEFBF0"/>
<path transform="translate(1334,1470)" d="m0 0h1l1 8 6 4v10l-1 1v7l1 6-1 2v6l3-2 7 2 1-28 1-1h15l3 3 2 9-1 14-2 2v9l-6 5-13 7-2 3h-5l-2 1-1-9v-12l-3 4-1 41-1 11-1 3-1-2z" fill="#FEF6E1"/>
<path transform="translate(992,1480)" d="m0 0 1 3 6 1 5-4h14l1 4-6 4-3 6-1 6-1 45h-1l-1-10-5-1v8l-2 4-4-5-4-16-2-7-2 2v27h-1l-1-7v-35l3-16z" fill="#FEF6E1"/>
<path transform="translate(1196,1523)" d="m0 0 13 1 10 4 8 7 2 3v5h-3l-4-1-4-6-9-3-12-2-8 1-12 4-5 4-5 8-2 10 1 9 3 8 2 1v2l4 1 15 1 1 2-6 4-13 2h-6l-6-7-3-9v-17l4-12 7-10 9-6 8-3z" fill="#FEFBF1"/>
<path transform="translate(1017,1467)" d="m0 0h12l10 2 9 5 6 9 2 5v8h-2l-1 3-2-3-1-2-2 1v-2l-4-2v-2l-4-1-3 1-2-7-5-2 1 2-12 1-1-2h-14l-6 4-5-2 1-6 7-6 8-3z" fill="#FEFBF1"/>
<path transform="translate(1658,1187)" d="m0 0 4 1 7 10 12 13 11 10 22 12 5 3 2 2 10 4 11 9 7 10 3 5 3 10-1 3h-3v-2h-2l-7-13-8-10-10-9-14-8-21-9-10-8-11-14-7-6-4-8z" fill="#FEFBF0"/>
<path transform="translate(1918,1493)" d="m0 0 2 1 1 6 3-1 6-3 7 1 5 5 2 3v9l-3 5-5 4-4 4-4 2h-6v-2h-2l-2-4v-3h-2l-1-10h2l-1-5 1-3h-5l-2 4-1 3v13l3 6-1 2-3-4-1-3v-16l6-10z" fill="#FEF6E1"/>
<path transform="translate(1856,1516)" d="m0 0h8l-5 4-10 6-6 5-5 9-1 11 3 12 3 5 4 2 19-1 5 2v1l-7 1v2l-14 5-6 1-7-3-5-7-3-8-1-14 3-12 6-10 7-7z" fill="#FEFBF0"/>
<path transform="translate(827,1467)" d="m0 0h9l13 2 6 3 1 1-1 10-3 4-28-2 1-5 3-1-1-3-11 1-5 5h-2l-2 4-3 2-3-2v-5l8-9 10-4z" fill="#FEFBF1"/>
<path transform="translate(109,1472)" d="m0 0 9 1 2 4h2l5 10 2 10h1v-11l-3-9-1-4 3 3 3 7v16l-5 10-2-1 4-8-6 1-5 3h-9l-7-9-2-6 1-9 4-6z" fill="#FEF6E1"/>
<path transform="translate(201,1506)" d="m0 0 2 1 8 5 2 5v8l-7 8-10 5-5 1-1-3-5-2-3-7 1-9 5-8 7-1z" fill="#FEF6E1"/>
<path transform="translate(1170,1473)" d="m0 0 7 1 6 5 4 6h3l1-5 2 3v17l-3 6-1-2 2-8-5 3-7 5-6 1-6-4-4-6-1-3v-11l4-6z" fill="#FEF6E1"/>
<path transform="translate(1840,1465)" d="m0 0h7l5 3 7 8h3l1-5 2 3v16l-3 4 1-9-4 1-2 4-8 5h-6l-5-5-4-7-1-2v-7l4-7z" fill="#FEF6E1"/>
<path transform="translate(1259,1507)" d="m0 0h5l9 9 1 6-4 8-9 6-5 2h-5l-4-5-1-4h-2v-10l3-9 6 1 4-1 1-2z" fill="#FEF6E1"/>
<path transform="translate(158,1473)" d="m0 0h8l5 5 2 6v7l-4 8-5 4-2 1h-8l-5-5-3-5v-8l6-9z" fill="#FEF6E1"/>
<path transform="translate(1222,1472)" d="m0 0 6 2 5 6 2 5-1 8-4 6-6 5-6 1-6-4-4-9 1-9 7-8z" fill="#FEF6E1"/>
<path transform="translate(1353,1485)" d="m0 0h15l3 3 2 9-1 14-4 4-3 1h-12l-1-1v-29z" fill="#AC8565"/>
<path transform="translate(1893,1463)" d="m0 0h3v2l5 1 5 6 1 7-3 7-4 5-7 3-6-1-5-5-2-4v-8l5-8z" fill="#FEF6E1"/>
<path transform="translate(1131,1505)" d="m0 0 6 2v2l5 2 3 2v2l3 1 3 5-2 7-4 4-4 3-9-1-6-7v-2h-2l-2-5v-6l4-6z" fill="#FEF6E1"/>
<path transform="translate(1799,1499)" d="m0 0h10l10 7 4 5-1 6-1 2-5 3-4 2h-6v-2l-5-2v-2h-2l-4-8v-6z" fill="#FEF6E1"/>
<path transform="translate(496,1484)" d="m0 0h4l1 2 1 19-2 9-2 1h-6v58h-1l-1-60-3 4-5-3-1-5 3 1-2-5v-5l-4 1 2-7 4 5h4l7-14z" fill="#FEF6E1"/>
<path transform="translate(68,1508)" d="m0 0h7v2l6 2 5 5 3 4-2 5-4 5-4 1v2l-7-1v-2l-4-2-3-4v-2l-2-1-1-2v-6l4-5z" fill="#FEF6E1"/>
<path transform="translate(1903,1542)" d="m0 0h3l1 2 1 20-5 10-7 6h-10l-10-4-4-5h14l9-3v-2l7-6 1-7-1-9z" fill="#FEFBF0"/>
<path transform="translate(1231,1549)" d="m0 0 3 1 2 13v12l-5 9-5 4-3 1h-8l-5-1v-2l-8-2 1-4h13l8-4h2l2-5 3-3-1-9-1-7z" fill="#FEFBF0"/>
<path transform="translate(191,1376)" d="m0 0h3l5 7 9 3 9-4 2-2h3l5 6 1 6-1 1h-28l-5-3-6-4v-7l3-1z" fill="#FEFAEF"/>
<path transform="translate(388,689)" d="m0 0 6 1 7 3 8 3 10 7 10 11 7 14-1 3v-2h-2l1 4h-2l-7-12-8-10-9-9-13-8-7-4z" fill="#FEFBF0"/>
<path transform="translate(35,648)" d="m0 0h3l2 11-2 6v3h-2v9l5 7h2l3 3 3 2-22 1 1-9z" fill="#FEFBF0"/>
<path transform="translate(1371,1488)" d="m0 0 4 2 6-1 4 2 1 7-3 11-5 5-8-1 2-9z" fill="#FEF6E1"/>
<path transform="translate(281,1490)" d="m0 0 2 1 5 29 1 6h-13l1-10z" fill="#AC8565"/>
<path transform="translate(744,656)" d="m0 0h2v9l-3 9h2l2 7 1 3h2l1 4-1 1h-14l1-10 5-22z" fill="#FEFBF0"/>
<path transform="translate(219,1336)" d="m0 0h2l1 2 1 28-4-3h-2l-1-6-2-4-3-3-2-5 5-5z" fill="#FEFBF1"/>
<path transform="translate(1696,1486)" d="m0 0h18l2 5 4-1 1 3h-2v8l-3 2v18l2 5-1 17h-1l-1 31h-1l-1-86-17-1z" fill="#FEF6E1"/>
<path transform="translate(89,1297)" d="m0 0 8 4 1 6-6 8-4 6-3-1v-18l1-2h2z" fill="#FEFBF1"/>
<path transform="translate(1963,398)" d="m0 0h15l-1 9-2 10h-2l-3-4-2-1-3-9z" fill="#FEFBF1"/>
<path transform="translate(793,1376)" d="m0 0 5 2 6 10 1 5h-12z" fill="#FEFBF2"/>
<path transform="translate(1396,674)" d="m0 0 1 3h2l5 10-1 2h-14l2-10h2l1-4z" fill="#FEFBF1"/>
<path transform="translate(1756,1359)" d="m0 0 3 2 2 5 5 5v3l-10 2h-4l1-10h2z" fill="#FEFBF1"/>
<path transform="translate(1594,1145)" d="m0 0 10 4 4 2v2l3-1 3 2v2l-5 1h-7l-9-7-2-3h3z" fill="#FEFBF1"/>
<path transform="translate(1527,1372)" d="m0 0 2 2 6 12-1 6h-8v-18z" fill="#FEFCF3"/>
<path transform="translate(844,1525)" d="m0 0 2 1-2 2v8l1 7h-2l1 10 5 5v5l-5 1-3-2-15-1v-1h15l1-33z" fill="#FEF6E1"/>
<path transform="translate(1882,1517)" d="m0 0 11 3 6 9v2h-6l-4-3-7-6 1-2z" fill="#FEFBF1"/>
<path transform="translate(1783,1343)" d="m0 0h1v30h-5l-3-3v-5l4-6h2v-13z" fill="#FEFCF3"/>
<path transform="translate(1350,397)" d="m0 0h2l-2 12h-2l-1 2v-2h-4v-2l-2-1-2-4 1-4z" fill="#FEFBF1"/>
<path transform="translate(244,1379)" d="m0 0 4 1 5 6 2 1v3l-3 1h-9l-1-9z" fill="#FEFCF3"/>
<path transform="translate(1533,1491)" d="m0 0h1v20h13v1h-14l-1 7-3 1-5-1v-6l5-3 4 1z" fill="#FEF6E1"/>
<path transform="translate(1320,1134)" d="m0 0h11l-1 9-3 4-4-2v-2l-2-1-1-4z" fill="#FEFBF1"/>
<path transform="translate(1320,807)" d="m0 0h11l-1 10-4 1v2h-2l-3-4z" fill="#FEFBF1"/>
<path transform="translate(84,431)" d="m0 0h11l-2 5-8 7h-3l1-9z" fill="#FEFBF1"/>
<path transform="translate(460,1503)" d="m0 0 2 1v3h2l3 5-1 10-3-3-3-5-2 3v-3h-2l2-5z" fill="#FEF6E1"/>
<path transform="translate(190,1500)" d="m0 0h5l-4 2-4 1v4l-6 2-4 8-1 5v8l3 8 5 5-5-2-4-6-1-3v-14l3-7 6-7z" fill="#FEF6E1"/>
<path transform="translate(1447,431)" d="m0 0h11l-2 5-6 5-3 1-1-1v-7z" fill="#FEFBF1"/>
<path transform="translate(793,431)" d="m0 0h11l-2 5h-2v2l-6 4h-2v-9z" fill="#FEFBF1"/>
<path transform="translate(149,1469)" d="m0 0 2 1-4 5-3 10-3 4-1 13h-1l-1-5v-8l3-10 6-8z" fill="#FEF6E1"/>
<path transform="translate(644,1516)" d="m0 0h1l1 16 2 11h-2l-1 7-1 9-2-1 1-29z" fill="#FEF6E1"/>
<path transform="translate(342,1379)" d="m0 0 2 4v7l-5 1-2-7z" fill="#FEFCF3"/>
<path transform="translate(1823,1498)" d="m0 0 5 5 3 7-1 10-3 6-2 1 2-6 1-2v-10l-2-2v-3h-2z" fill="#FEF6E1"/>
<path transform="translate(179,1487)" d="m0 0h1v8l-3 9-6 7-9 4h-8v-1l12-3 4-3h2l5-10z" fill="#FEF6E1"/>
<path transform="translate(250,1226)" d="m0 0 4 2 2 9-2 3h-2v-4h-2l-1-8z" fill="#FEFCF3"/>
<path transform="translate(1878,1464)" d="m0 0 1 2-2 8-3 2-1 7v10h-1l-1-13 3-10z" fill="#FEF6E1"/>
<path transform="translate(1163,1540)" d="m0 0 1 3-4 9-1 4v15l3 11-2-1-3-9v-17l4-12z" fill="#FEF6E1"/>
<path transform="translate(1122,398)" d="m0 0h12l-2 4h-4v2l-6 1z" fill="#FEFBF1"/>
<path transform="translate(1213,1467)" d="m0 0 2 1-7 7-3 9-4 1 1-5 6-9z" fill="#FEF6E3"/>
<path transform="translate(1626,1149)" d="m0 0 3 1-1 5-2 1h-8l-1-2z" fill="#FEFBF0"/>
<path transform="translate(813,1518)" d="m0 0h1v11l1-4h2v8h-2l-1 5-2-2v-10z" fill="#FEFCF3"/>
<path transform="translate(450,1482)" d="m0 0 3 1-1 2h-2l1 12-1 4h-2v-17z" fill="#FEF6E1"/>
<path transform="translate(476,1504)" d="m0 0h1v6l-3 3-5-2 2-4h2l1-2v2h2z" fill="#FEF6E2"/>
<path transform="translate(288,1540)" d="m0 0h3v3h2l1 9h-1l-1-8h-20v-1l15-1z" fill="#FEF6E1"/>
<path transform="translate(836,1479)" d="m0 0 4 1v4l5 1v1l-16-1v-1l5-1z" fill="#FEF6E1"/>
<path transform="translate(1246,1503)" d="m0 0 2 1-1 6-8 2 2-4z" fill="#FEF6E1"/>
<path transform="translate(178,1175)" d="m0 0 2 2-1 18h-1l-1-14-1-4z" fill="#FEFBF1"/>
<path transform="translate(1526,1554)" d="m0 0h5l2 5-4 2-3-2z" fill="#FEF6E1"/>
<path transform="translate(39,634)" d="m0 0 3 1v5l-2 3h-2v-8z" fill="#FEFBF1"/>
<path transform="translate(130,1582)" d="m0 0 11 1 2 2h-12l-7 1 4-3z" fill="#FEF6E1"/>
<path transform="translate(1123,397)" d="m0 0h16v2l2 1h-6l-1-1-11-1z" fill="#FEF8E7"/>
</svg>
